<svg xmlns="http://www.w3.org/2000/svg" id="Layer_1" width="295" height="60" viewBox="0 0 295 60"><path d="M79 51v7H51v-7l2.4584961-0.4375C56.2641602 50.0820313 58 49.203125 58 46V13c0-3.2041016-1.4921875-4.1469727-4.2978516-4.6289063L51 8V1h28v7l-2.7021484 0.3710938C73.4931641 8.8530273 72 9.7958984 72 13v33c0 3.203125 1.7163086 4.0615234 4.5209961 4.5419922"/><path d="M101.9995117 58H81v-7l2.4960938-0.4589844c2.6435547-0.5605469 3.5058594-1.2285156 3.5058594-4.5117188l-0.0058594-33.0297852c0-3.4448242-0.7939453-3.9072266-3.9199219-4.628418l-2.0800781-0.371582V1h23l19 36h1V12.9995117c0-3.2841797-0.8496094-4.1694336-3.4951172-4.6513672L118 8V1h21l-0.0039063 7 -2.4624023 0.3481445c-2.6425781 0.5615234-3.5375977 1.3671875-3.5375977 4.6513672V58h-14l-22-41h-1v29c0 3.2832031 0.8452148 4.0234375 3.4907227 4.5039063L101.9995117 51"/><path d="M157 58h-21v-7l1.9379883-0.4589844c2.8037109-0.640625 3.9306641-1.8710938 4.8911133-4.5117188L159 1h13l15 44c1.2041016 3.4433594 2.0527344 4.8203125 4.9375 5.5410156L194 51v7h-27v-7l2.3339844-0.4589844c2.8847656-0.5605469 3.5605469-2.2695313 2.5195313-5.7167969L171 42h-17.5l-1 2.8759766c-1.0419922 3.2871094-0.6533203 4.9443359 2.3125 5.6650391L157 51M156.5 34h12L163 15l0 0L156.5 34z"/><path d="M216 58h-20.9960938v-7l2.453125-0.4960938c2.6416016-0.5605469 3.5517578-1.1914063 3.5517578-4.4746094L201.0039063 13c0-3.4448242-0.7949219-3.9077148-3.9208984-4.6289063L195 8V1h22.9951172l19.0087891 36h1V13c0-3.2841797-0.9013672-4.1450195-3.546875-4.6269531L232 8V1h21.0078125l-0.0039063 7L250.46875 8.3481445C247.8251953 8.909668 247.0039063 9.7158203 247.0039063 13v45h-14l-22-41h-1v29c0 3.2832031 0.8759766 4.0234375 3.5195313 4.5039063L216 51"/><path d="M256 56l-1-14h8c0.2392578 1.3613281 0.9765625 4.1318359 1.6972656 5.4912109C266.2939453 50.5302734 269.4785156 51 273 51c5.6748047 0 8.3261719-2.7890625 8.3261719-6.7871094 0-5.0351563-3.1992188-6.3955078-8.7929688-8.5556641l-4.3173828-1.7568359c-7.8369141-2.7978516-12.6347656-7.6762695-12.6347656-16.8701172C255.5810547 7.5952148 261.6298828 0 276.0205078 0 283.3779297 0 287.8808594 0.9609375 291 2l1 12.9995117h-8c-0.4013672-1.4384766-0.6748047-3.1660156-2.4335938-5.0058594C280.4453125 8.8745117 278.9423828 8 275.5830078 8c-4.4765625 0-7.4492188 2.0732422-7.4492188 5.4321289 0 3.7573242 2.2392578 5.8359375 7.515625 7.8359375l4.3964844 1.6782227C289.0820313 26.3041992 295 30.9414063 295 41.0957031 295 51.6474609 287.46875 59 273 59 266.5195313 59 260.1572266 57.6005859 256 56"/><path d="M1 58v-7l2.5209961-0.4794922C6.324707 50.0400391 8 49.203125 8 46V13c0-3.2041016-1.4716797-4.1469727-4.2753906-4.6289063L1 8V1h47.0302734L49 17h-8l-1.3828125-4.7026367C38.7373047 9.9746094 37.9667969 9 35 9H22v16h4c2.8837891 0 2.7543945-0.578125 3.3959961-3.0625L30 19h6v19h-6l-0.5-2.25C28.8583984 33.4277344 28.8837891 32 26 32h-4v14c0 3.203125 1.6748047 4.1220703 4.4794922 4.5205078L29 51v7H1"/></svg>